<?xml version="1.0" encoding="utf-8"?>
<!-- Generator: Adobe Illustrator 27.8.1, SVG Export Plug-In . SVG Version: 6.00 Build 0)  -->
<svg version="1.1" id="レイヤー_1" xmlns="http://www.w3.org/2000/svg" xmlns:xlink="http://www.w3.org/1999/xlink" x="0px"
	 y="0px" viewBox="0 0 444 89.96" style="enable-background:new 0 0 444 89.96;" xml:space="preserve">
<style type="text/css">
	.st0{fill:#4988A1;}
	.st1{fill:#F48986;}
	.st2{fill:#72ADB7;}
	.st3{fill:#FDC171;}
	.st4{fill:#F7BAA1;}
</style>
<g>
	<g>
		<path class="st0" d="M35.94,45.92c-1.12,1.01-2.83,0.98-3.91-0.08c-2.49-2.46-5.58-3.7-9.28-3.7c-1.87,0-3.71,0.47-5.5,1.41
			c-1.8,0.94-2.69,2.46-2.69,4.56c0,1.72,0.74,2.97,2.22,3.75c1.48,0.78,3.35,1.45,5.62,1.99c2.26,0.55,4.7,1.11,7.32,1.7
			c2.61,0.59,5.05,1.48,7.32,2.69c2.26,1.21,4.14,2.87,5.62,4.97c1.48,2.11,2.22,5,2.22,8.66c0,3.36-0.72,6.19-2.17,8.49
			c-1.45,2.3-3.32,4.16-5.62,5.56c-2.3,1.41-4.9,2.42-7.79,3.04c-2.89,0.62-5.78,0.94-8.66,0.94c-4.37,0-8.39-0.63-12.06-1.87
			c-2.76-0.94-5.3-2.45-7.62-4.55c-1.26-1.13-1.31-3.09-0.07-4.25l5.15-4.83c1.1-1.03,2.82-1.07,3.91-0.04
			c1.26,1.19,2.58,2.21,3.95,3.07c2.07,1.29,4.58,1.93,7.55,1.93c1.01,0,2.07-0.12,3.16-0.35c1.09-0.23,2.11-0.62,3.04-1.17
			c0.94-0.55,1.7-1.23,2.28-2.05c0.59-0.82,0.88-1.77,0.88-2.87c0-1.95-0.74-3.4-2.22-4.33c-1.48-0.94-3.36-1.7-5.62-2.28
			c-2.26-0.59-4.7-1.13-7.32-1.64c-2.62-0.51-5.05-1.32-7.32-2.46c-2.26-1.13-4.14-2.71-5.62-4.74c-1.48-2.03-2.22-4.84-2.22-8.43
			c0-3.12,0.64-5.83,1.93-8.14c1.29-2.3,2.99-4.19,5.09-5.68c2.11-1.48,4.53-2.57,7.26-3.28c2.73-0.7,5.5-1.05,8.31-1.05
			c3.75,0,7.45,0.64,11.12,1.93c2.68,0.94,4.99,2.38,6.92,4.3c1.17,1.16,1.13,3.07-0.1,4.18L35.94,45.92z"/>
		<path class="st1" d="M49.21,41.39v-6.21c0-1.58,1.28-2.86,2.86-2.86h5.86c1.58,0,2.86-1.28,2.86-2.86V18.9
			c0-1.58,1.28-2.86,2.86-2.86h8.32c1.58,0,2.86,1.28,2.86,2.86v10.54c0,1.58,1.28,2.86,2.86,2.86h9.72c1.58,0,2.86,1.28,2.86,2.86
			v6.21c0,1.58-1.28,2.86-2.86,2.86h-9.72c-1.58,0-2.86,1.28-2.86,2.86v21.72c0,2.81,0.53,5.03,1.58,6.67
			c1.05,1.64,3.14,2.46,6.26,2.46c1.25,0,2.61-0.14,4.1-0.41l0.04-0.01c1.8-0.33,3.47,1.05,3.47,2.89v5.62
			c0,1.27-0.83,2.39-2.04,2.75c-1.02,0.3-2.16,0.53-3.4,0.69c-2.15,0.27-4.04,0.41-5.68,0.41c-3.75,0-6.81-0.41-9.19-1.23
			c-2.38-0.82-4.25-2.07-5.62-3.75c-1.37-1.68-2.3-3.76-2.81-6.26c-0.51-2.5-0.76-5.39-0.76-8.66V47.12c0-1.58-1.28-2.86-2.86-2.86
			h-5.86C50.5,44.25,49.21,42.97,49.21,41.39z"/>
		<path class="st2" d="M149.72,88.5h-7.62c-1.58,0-2.86-1.28-2.86-2.86v-6.15h-0.23c-1.33,2.81-3.36,5.25-6.09,7.32
			c-2.73,2.07-6.44,3.1-11.12,3.1c-3.75,0-6.93-0.6-9.54-1.81c-2.62-1.21-4.74-2.85-6.38-4.92c-1.64-2.07-2.81-4.43-3.51-7.08
			c-0.7-2.65-1.05-5.42-1.05-8.31V35.18c0-1.58,1.28-2.86,2.86-2.86h8.32c1.58,0,2.86,1.28,2.86,2.86v25.58
			c0,1.56,0.08,3.3,0.23,5.21c0.15,1.91,0.56,3.71,1.23,5.39c0.66,1.68,1.68,3.08,3.04,4.21c1.37,1.13,3.3,1.7,5.8,1.7
			c2.34,0,4.31-0.39,5.91-1.17c1.6-0.78,2.93-1.83,3.98-3.16c1.05-1.33,1.81-2.85,2.28-4.57c0.47-1.72,0.7-3.51,0.7-5.39V35.18
			c0-1.58,1.28-2.86,2.86-2.86h8.32c1.58,0,2.86,1.28,2.86,2.86v50.46C152.58,87.22,151.3,88.5,149.72,88.5z"/>
		<path class="st3" d="M212.99,80.08h-0.23c-2.03,3.43-4.76,5.93-8.19,7.49c-3.43,1.56-7.14,2.34-11.12,2.34
			c-4.37,0-8.25-0.76-11.65-2.28c-3.39-1.52-6.3-3.61-8.72-6.26c-2.42-2.65-4.25-5.78-5.5-9.37c-1.25-3.59-1.87-7.45-1.87-11.59
			c0-4.13,0.66-8,1.99-11.59c1.33-3.59,3.18-6.71,5.56-9.36c2.38-2.65,5.25-4.74,8.61-6.26c3.35-1.52,7.02-2.28,11-2.28
			c2.65,0,4.99,0.28,7.02,0.82c2.03,0.55,3.82,1.25,5.39,2.11c1.56,0.86,2.89,1.78,3.98,2.75c1.09,0.98,1.99,1.93,2.69,2.87h0.35
			V2.86c0-1.58,1.28-2.86,2.86-2.86h8.21c1.64,0,2.97,1.33,2.97,2.97v82.67c0,1.58-1.28,2.86-2.86,2.86h-7.62
			c-1.58,0-2.86-1.28-2.86-2.86V80.08z M179.74,60.41c0,2.19,0.37,4.29,1.11,6.32c0.74,2.03,1.83,3.82,3.28,5.39
			c1.44,1.56,3.18,2.81,5.21,3.75c2.03,0.94,4.33,1.41,6.91,1.41s4.88-0.47,6.91-1.41c2.03-0.94,3.76-2.18,5.21-3.75
			c1.44-1.56,2.54-3.36,3.28-5.39c0.74-2.03,1.11-4.14,1.11-6.32c0-2.18-0.37-4.29-1.11-6.32c-0.74-2.03-1.83-3.82-3.28-5.39
			c-1.45-1.56-3.18-2.81-5.21-3.75c-2.03-0.94-4.33-1.4-6.91-1.4s-4.88,0.47-6.91,1.4c-2.03,0.94-3.77,2.19-5.21,3.75
			c-1.45,1.56-2.54,3.36-3.28,5.39C180.11,56.12,179.74,58.22,179.74,60.41z"/>
		<path class="st4" d="M240.5,13.23c0-2.26,0.84-4.23,2.52-5.91c1.68-1.68,3.8-2.52,6.38-2.52s4.74,0.8,6.5,2.4
			c1.76,1.6,2.63,3.61,2.63,6.03c0,2.42-0.88,4.43-2.63,6.03c-1.76,1.6-3.92,2.4-6.5,2.4s-4.7-0.84-6.38-2.52
			C241.34,17.46,240.5,15.49,240.5,13.23z M244.86,32.31h9.31c1.31,0,2.37,1.06,2.37,2.37v51.46c0,1.31-1.06,2.37-2.37,2.37h-9.31
			c-1.31,0-2.37-1.06-2.37-2.37V34.68C242.49,33.37,243.55,32.31,244.86,32.31z"/>
		<path class="st0" d="M269.89,60.41c0-4.45,0.8-8.49,2.4-12.12c1.6-3.63,3.76-6.73,6.5-9.31c2.73-2.58,5.97-4.57,9.72-5.97
			c3.75-1.4,7.73-2.11,11.94-2.11s8.19,0.7,11.94,2.11c3.75,1.41,6.98,3.4,9.72,5.97c2.73,2.57,4.9,5.68,6.5,9.31
			c1.6,3.63,2.4,7.67,2.4,12.12c0,4.45-0.8,8.49-2.4,12.12c-1.6,3.63-3.77,6.73-6.5,9.31c-2.73,2.58-5.97,4.57-9.72,5.97
			c-3.75,1.41-7.73,2.11-11.94,2.11s-8.19-0.7-11.94-2.11c-3.75-1.4-6.99-3.39-9.72-5.97c-2.73-2.57-4.9-5.68-6.5-9.31
			C270.69,68.9,269.89,64.86,269.89,60.41z M283.93,60.41c0,2.19,0.37,4.29,1.11,6.32c0.74,2.03,1.83,3.82,3.28,5.39
			c1.44,1.56,3.18,2.81,5.21,3.75c2.03,0.94,4.33,1.41,6.91,1.41c2.58,0,4.88-0.47,6.91-1.41c2.03-0.94,3.76-2.18,5.21-3.75
			c1.44-1.56,2.54-3.36,3.28-5.39c0.74-2.03,1.11-4.14,1.11-6.32c0-2.18-0.37-4.29-1.11-6.32c-0.74-2.03-1.83-3.82-3.28-5.39
			c-1.45-1.56-3.18-2.81-5.21-3.75c-2.03-0.94-4.33-1.4-6.91-1.4c-2.58,0-4.88,0.47-6.91,1.4c-2.03,0.94-3.77,2.19-5.21,3.75
			c-1.45,1.56-2.54,3.36-3.28,5.39C284.3,56.12,283.93,58.22,283.93,60.41z"/>
	</g>
	<g>
		<path class="st1" d="M371.23,6.62h50.39c1.63,0,2.96,1.33,2.96,2.96v9.25c0,0.44-0.1,0.87-0.28,1.27l-32.05,67.71
			c-0.49,1.03-1.53,1.69-2.68,1.69h-9.9c-2.19,0-3.62-2.29-2.66-4.25l29.69-61.03c0.96-1.97-0.48-4.25-2.66-4.25h-32.81
			c-1.63,0-2.96-1.33-2.96-2.96V9.58C368.27,7.95,369.59,6.62,371.23,6.62z"/>
	</g>
	<path class="st2" d="M352.57,47.94c0-2.26,0.84-4.23,2.52-5.91c1.68-1.68,3.8-2.52,6.38-2.52c2.58,0,4.74,0.8,6.5,2.4
		c1.76,1.6,2.63,3.61,2.63,6.03c0,2.42-0.88,4.43-2.63,6.03c-1.76,1.6-3.92,2.4-6.5,2.4c-2.58,0-4.7-0.84-6.38-2.52
		C353.41,52.18,352.57,50.21,352.57,47.94z"/>
	<path class="st2" d="M425.97,47.94c0-2.26,0.84-4.23,2.52-5.91c1.68-1.68,3.8-2.52,6.38-2.52c2.58,0,4.74,0.8,6.5,2.4
		c1.76,1.6,2.63,3.61,2.63,6.03c0,2.42-0.88,4.43-2.63,6.03c-1.76,1.6-3.92,2.4-6.5,2.4c-2.58,0-4.7-0.84-6.38-2.52
		C426.81,52.18,425.97,50.21,425.97,47.94z"/>
	<path class="st2" d="M412.94,89.96c-1.08,0-2.17-0.05-3.25-0.15c-1.71-0.16-2.89-1.8-2.57-3.49l0.89-4.75
		c0.28-1.47,1.63-2.45,3.13-2.34c7.04,0.5,14.39-2.12,19.51-6.98c1.09-1.03,2.75-1.14,3.9-0.17l3.7,3.1
		c1.35,1.14,1.39,3.18,0.13,4.42C431.65,86.21,422.34,89.96,412.94,89.96z"/>
</g>
</svg>
